<?xml version="1.0" encoding="utf-8"?>
<!-- Generator: Adobe Illustrator 25.3.1, SVG Export Plug-In . SVG Version: 6.00 Build 0)  -->
<svg version="1.1" id="Layer_1" xmlns="http://www.w3.org/2000/svg" xmlns:xlink="http://www.w3.org/1999/xlink" x="0px" y="0px"
	 viewBox="0 0 360 360" style="enable-background:new 0 0 360 360;" xml:space="preserve">
<style type="text/css">
	.st0{fill:#5528DC;}
	.st1{fill:#FFFFFF;}
</style>
<g>
	<circle class="st0" cx="180" cy="180" r="172.4"/>
	<g id="mgUQYF.tif">
		<g>
			<path class="st1" d="M80.6,240.1c0-33.7,0-67.3,0-101c0.1-0.2,0.3-0.3,0.3-0.5c2.1-6.7,6.4-9.9,13.5-9.9c6.4,0,12.8,0,19.2,0
				c0.7,0,1.4,0,2.3,0c0-1,0-1.7,0-2.4c0-6.5,0-13.1,0-19.6c0-2.4,1.2-3.6,3.5-3.6c4,0,8,0,12,0c2.5,0,3.6,1.2,3.6,3.7
				c0,6.3,0,12.7,0,19c0,0.9,0,1.8,0,2.8c1.2,0,2.1,0,3.2,0c0-0.8,0-1.6,0-2.3c0-14,0-27.9,0-41.9c0-2.7,1.1-3.8,3.7-3.8
				c3.7,0,7.5,0,11.2,0c3.3,0,4.2,1,4.2,4.3c0,13.8,0,27.6,0,41.5c0,0.7,0,1.4,0,2.2c1.2,0,2.1,0,3.2,0c0-0.8,0-1.6,0-2.3
				c0-9.7,0-19.4,0-29c0-2.7,1.1-3.8,3.7-3.8c3.8,0,7.6,0,11.4,0c3,0,4,1,4.1,4.1c0,9.6,0,19.2,0,28.8c0,0.7,0,1.4,0,2.2
				c13.1,0,26,0,39.3,0c-5.2-6.3-7.7-13.3-7.1-21.2c0.6-7.9,4-14.6,10-19.8c10.4-9,26.1-9.3,36.7-0.8c5.5,4.4,9.1,10.1,10.4,17.1
				c1.8,9.2-0.6,17.4-6.7,24.9c1.3,0,2.2,0,3.1,0c8.4,0,13.7,5.3,13.7,13.7c0,31.5,0,63,0,94.5c0,8.1-5.4,13.5-13.6,13.5
				c-21,0-41.9,0-62.9,0c-0.7,0-1.4,0-2.4,0c1.4,4.2,2.6,8.1,4,12c0.2,0.4,1.1,0.8,1.7,0.8c2.9,0.1,5.7,0,8.6,0
				c2.4,0,3.5,1.2,3.6,3.6c0,2,0,4,0,6c1,0,1.7,0,2.4,0c9.7,0,19.5,0,29.2,0c2.7,0,4.4,2.3,3.2,4.5c-0.4,0.7-1.1,1.3-1.7,1.9
				c-47.8,0-95.6,0-143.5,0c-1.5-1.1-2.6-2.4-1.8-4.4c0.7-1.9,2.4-2,4.1-2c9.5,0,19.1,0,28.6,0c0.7,0,1.4,0,2.3,0c0-2.2,0-4.1,0-6
				c0-2.4,1.2-3.5,3.6-3.6c2.9,0,5.9,0.1,8.8-0.1c0.6,0,1.4-0.6,1.6-1.2c1-2.7,1.9-5.4,2.8-8.1c0.4-1.1,0.7-2.2,1-3.5
				c-1,0-1.7,0-2.5,0c-21.1,0-42.2,0-63.3,0c-6,0-10.8-3.6-12.5-9.3C80.9,240.8,80.8,240.5,80.6,240.1z M183.2,160.7
				c0-6.3,0-12.5,0-18.7c0-2.4,1.1-3.6,3.5-3.6c4,0,8,0,12,0c2.5,0,3.7,1.1,3.7,3.7c0,7.1,0,14.3,0,21.4c0,2.5-1.1,3.7-3.6,3.7
				c-33.9,0-67.8,0-101.8,0c-2.4,0-3.6-1.2-3.6-3.6c0-7.2,0-14.4,0-21.6c0-2.5,1.2-3.6,3.7-3.6c3.9,0,7.7,0,11.6,0
				c2.8,0,3.9,1.1,3.9,3.9c0,5.5,0,10.9,0,16.4c0,0.7,0,1.4,0,2c1.2,0,2.1,0,3.1,0c0-8.5,0-17,0-25.5c-7.1,0-14.1,0-21.1,0
				c-5.1,0-7.6,2.5-7.6,7.6c0,26.6,0,53.3,0,79.9c0,0.7,0,1.4,0,2c62.2,0,124,0,185.9,0c0-0.3,0.1-0.4,0.1-0.6c0-27.4,0-54.9,0-82.3
				c0-3.9-2.8-6.6-6.7-6.7c-3.3-0.1-6.7-0.1-10,0c-1.2,0-2.5,0.3-3.6,0.8c-7.9,3.3-15.7,3.2-23.5,0c-1-0.4-2.2-0.7-3.2-0.7
				c-14.6,0-29.1,0-43.7,0c-0.7,0-1.4,0-2.1,0c0,8.7,0,17.1,0,25.6C181.1,160.7,182,160.7,183.2,160.7z M273,231.4
				c-62.1,0-124,0-185.9,0c0,1.6,0,3,0,4.5c0,5.9,2.3,8.2,8.2,8.2c56.5,0,113,0,169.4,0c0.7,0,1.3,0,2,0c3.4-0.2,6-2.7,6.2-6.2
				C273.1,235.8,273,233.7,273,231.4z M144.9,87.2c0,24.6,0,49.1,0,73.5c2.2,0,4.2,0,6.2,0c0-24.6,0-49,0-73.5
				C149,87.2,147,87.2,144.9,87.2z M263.1,112.7c-6.9,0-13.6,0-20.2,0c-0.4,0-0.8,0.2-1,0.5c-4.7,4.7-9.4,9.4-14.3,14.3
				c6.9,4.8,14.2,5.9,21.8,2.8C257,127.1,261.5,121.1,263.1,112.7z M237.7,87.3c-9.1,1.9-15.2,6.8-18,15.3
				c-2.4,7.2-1.1,13.9,3.3,20.3c4.8-4.9,9.5-9.5,14.1-14.1c0.3-0.3,0.6-0.9,0.6-1.4C237.7,100.8,237.7,94.2,237.7,87.3z
				 M197.9,263.3c-1.3-3.9-2.6-7.5-3.7-11.2c-0.4-1.3-1-1.6-2.2-1.6c-6.5,0.1-13.1,0-19.6,0c-2,0-4.5-0.6-5.8,0.4s-1.5,3.5-2.2,5.4
				c-0.8,2.3-1.5,4.6-2.3,7C174.2,263.3,185.9,263.3,197.9,263.3z M173.5,160.7c0-20.3,0-40.5,0-60.7c-2.2,0-4.2,0-6.2,0
				c0,20.3,0,40.4,0,60.7C169.4,160.7,171.3,160.7,173.5,160.7z M128.6,160.7c0-17.1,0-34.1,0-51c-2.2,0-4.2,0-6.2,0
				c0,17.1,0,34,0,51C124.5,160.7,126.5,160.7,128.6,160.7z M262.9,106.2c-0.6-9-10.2-18.6-18.6-18.7c0,6.2,0,12.4,0,18.7
				C250.5,106.2,256.6,106.2,262.9,106.2z M212,269.9c-21.3,0-42.6,0-63.9,0c0,1.1,0,2,0,3c21.4,0,42.6,0,63.9,0
				C212,271.8,212,270.9,212,269.9z M100,144.8c0,5.4,0,10.6,0,15.8c2.2,0,4.2,0,6.2,0c0-5.3,0-10.5,0-15.8
				C104.1,144.8,102.1,144.8,100,144.8z M195.9,160.7c0-5.3,0-10.5,0-15.8c-2.1,0-4.2,0-6.2,0c0,5.4,0,10.6,0,15.8
				C191.9,160.7,193.9,160.7,195.9,160.7z M138.2,160.7c0-8.6,0-17,0-25.5c-1.1,0-2,0-3,0c0,8.5,0,17,0,25.5
				C136.2,160.7,137.1,160.7,138.2,160.7z M157.7,135.2c0,8.6,0,17,0,25.5c1,0,2,0,3,0c0-8.5,0-17,0-25.5
				C159.7,135.2,158.7,135.2,157.7,135.2z"/>
			<path class="st1" d="M111.7,200.5c-3.3,4.5-7.1,6-11.4,4.7c-4.4-1.3-7.1-5.3-6.8-10.1c0.2-4.1,3.7-7.9,7.9-8.7
				c4.4-0.8,8.7,1.5,10.4,5.6c0.5,1.3,1.3,1.9,2.6,2.5c10.4,4.3,20.8,8.6,31.3,13c1.9-3,4.4-4.9,8-5.2c3.6-0.2,6.4,1.4,8.8,4.2
				c1.9-1.4,3.7-2.7,5.5-4.1c9-6.7,17.9-13.4,26.9-20.2c0.7-0.6,1.3-1.5,1.6-2.3c1.4-3.8,4.9-6.4,8.8-6.5c4.3-0.1,7.8,2.3,9.4,6.1
				c0.3,0.8,0.9,1.7,1.6,2.1c10.4,6.2,20.9,12.3,31.4,18.4c0.2,0.1,0.5,0.2,0.8,0.4c0.4-0.5,0.8-1,1.3-1.4c2.9-3.2,7.5-4.1,11.4-2.2
				c3.7,1.8,5.9,6,5.3,10.1s-4.2,7.6-8.3,8.1c-4.3,0.5-8.5-1.7-10-5.7c-0.6-1.6-1.6-2.4-3-3.2c-9.7-5.6-19.5-11.3-29.2-17
				c-0.6-0.4-1.3-0.7-1.9-1c-4.7,5.8-11.5,6.3-16.8,0.4c-6.6,4.9-13.2,9.9-19.8,14.9c-4.1,3-8.1,6-12.1,9.2
				c-0.8,0.6-1.5,1.6-1.9,2.6c-1.5,3.7-4.9,6.3-8.7,6.4c-4.3,0.1-7.6-2.1-9.4-5.9c-0.3-0.7-0.9-1.5-1.6-1.8
				c-9.4-4-18.8-7.9-28.2-11.8C114.4,201.6,113.1,201.1,111.7,200.5z M106.2,196.1c0.1-1.6-1.5-3.2-3.1-3.3c-1.7,0-3.2,1.4-3.3,3.1
				c0,1.7,1.4,3.2,3.1,3.3C104.6,199.3,106.2,197.8,106.2,196.1z M208.8,183.3c0.1-1.6-1.5-3.2-3.1-3.3c-1.6,0-3.2,1.5-3.3,3.1
				c0,1.6,1.5,3.2,3.1,3.3C207.2,186.5,208.8,185,208.8,183.3z M256.9,202.5c-1.7,0-3.2,1.6-3.1,3.3c0,1.7,1.6,3.2,3.2,3.1
				c1.7,0,3.2-1.6,3.1-3.3C260.1,203.9,258.5,202.4,256.9,202.5z M154.3,215.3c1.6,0,3.2-1.5,3.2-3.2c0-1.6-1.5-3.2-3.2-3.2
				c-1.6,0-3.2,1.5-3.2,3.2C151.1,213.7,152.7,215.2,154.3,215.3z"/>
			<path class="st1" d="M242.6,141.6c4.6,0,9.2,0,13.8,0c2.4,0,3.7,1.2,3.7,3.2s-1.4,3.2-3.7,3.2c-8.4,0-16.8,0-25.2,0.1
				c-1,0-2.2,0.5-2.9,1.2c-3.6,3.4-7,6.9-10.5,10.4c-1.2,1.2-2.7,1.7-3.9,0.7c-0.9-0.7-1.4-2.1-1.6-3.3c-0.1-0.6,0.6-1.6,1.2-2.1
				c4-4,7.9-8.1,12-12c0.8-0.7,2.1-1.3,3.2-1.3C233.3,141.5,237.9,141.6,242.6,141.6z"/>
			<path class="st1" d="M114.2,176.8c-5.6,0-11.2,0-16.8,0c-2.5,0-3.9-1.2-3.9-3.2s1.4-3.1,3.8-3.1c11.4,0,22.7,0,34.1,0
				c2.4,0,3.8,1.1,3.8,3.1c0,2.1-1.4,3.2-3.9,3.2C125.5,176.8,119.9,176.8,114.2,176.8z"/>
			<path class="st1" d="M220,221.7c-3.5,0-7.1,0-10.6,0c-2.4,0-3.7-1.2-3.7-3.2s1.4-3.2,3.8-3.2c7.1,0,14.2,0,21.2,0
				c2.4,0,3.8,1.1,3.8,3.1c0,2.1-1.3,3.3-3.9,3.3C227.1,221.7,223.5,221.7,220,221.7z"/>
			<path class="st1" d="M226.4,212.1c-1.5,0-3.1,0-4.6,0c-2-0.1-3.3-1.4-3.3-3.3c0-1.8,1.3-3.1,3.2-3.1c3.2-0.1,6.4-0.1,9.6,0
				c1.9,0,3.2,1.4,3.2,3.2s-1.2,3.1-3.1,3.2C229.7,212.1,228,212.1,226.4,212.1z"/>
			<path class="st1" d="M143,176.8c-0.6,0-1.2,0.1-1.8,0c-1.7-0.2-2.9-1.5-2.9-3.3c0-1.7,1.2-3,3-3.1c1.1-0.1,2.3-0.1,3.4,0
				c1.9,0.1,3.2,1.4,3.2,3.2s-1.2,3.1-3.1,3.2C144.2,176.8,143.6,176.8,143,176.8L143,176.8z"/>
			<path class="st1" d="M106.3,240.9c-3.1,0-6.1,0-9.2,0c-2.2,0-3.6-1.2-3.6-3.1c0-2,1.3-3.3,3.7-3.3c6.1,0,12.2,0,18.2,0
				c2.4,0,3.7,1.2,3.7,3.2s-1.4,3.2-3.8,3.2C112.3,240.9,109.3,240.9,106.3,240.9z"/>
			<path class="st1" d="M127.2,234.5c0.5,0,0.9,0,1.4,0c2,0.1,3.3,1.4,3.3,3.2s-1.3,3.1-3.2,3.1c-1.1,0-2.1,0-3.2,0
				c-1.9-0.1-3.2-1.4-3.2-3.1c0-1.9,1.3-3.2,3.3-3.2C126.1,234.5,126.7,234.5,127.2,234.5z"/>
		</g>
	</g>
</g>
</svg>
