<?xml version="1.0" encoding="utf-8"?>
<!-- Generator: Adobe Illustrator 25.3.1, SVG Export Plug-In . SVG Version: 6.00 Build 0)  -->
<svg version="1.1" id="Layer_1" xmlns="http://www.w3.org/2000/svg" xmlns:xlink="http://www.w3.org/1999/xlink" x="0px" y="0px"
	 viewBox="0 0 360 360" style="enable-background:new 0 0 360 360;" xml:space="preserve">
<style type="text/css">
	.st0{fill:#328CEB;}
	.st1{fill:#FFFFFF;}
</style>
<g>
	<circle class="st0" cx="180" cy="180" r="172.4"/>
	<g id="_x32_yFJAm.tif">
		<g>
			<path class="st1" d="M70.8,257.4c0.4-1.4,0.7-2.7,1.1-4.1c5.2-15.7,23.9-21.6,37.1-11.6c0.5,0.4,1,0.7,1.4,1
				c16.8-16.8,33.4-33.4,50.3-50.3c-4.2-5.6-6.6-12-6.6-19.2s2.3-13.6,6.5-19.2c-10.2-10.2-20.3-20.3-30.4-30.5
				c-9.2,3.5-16.9,1.6-21.2-5.4c-4-6.4-3-14.8,2.3-19.9c5.5-5.3,14.1-6,20.2-1.7c6.2,4.4,9,12.9,4.9,20.6
				c10.2,10.2,20.3,20.3,30.5,30.5c12.6-8.6,25.6-8.6,38.4,0.2c13-13,25.9-25.9,38.8-38.8c-0.7-2.6-1.8-5.3-2.2-8
				c-1.9-12.7,6.4-24.3,19.1-26.8c0.3-0.1,0.6-0.3,0.9-0.4c2.3,0,4.5,0,6.8,0c4.1,1.1,8.1,2.5,11.5,5.2c7.4,5.9,10.6,15.7,8.1,25
				c-2.4,9-10.3,15.8-19.5,17.2c-6.6,1-12.5-0.7-17.8-4.6c-0.5-0.4-1-0.7-1.4-0.9c-12.8,12.8-25.5,25.5-38.3,38.3
				c8.7,12.6,8.7,25.6-0.2,38.6c0.5,0.5,1,1,1.4,1.5c9.1,9.1,18.2,18.2,27.3,27.3c1.1,1.1,1.8,1.4,3.4,0.7c8-3.6,17.8,0.5,21,8.6
				c3.2,8.3-1,17.9-9.3,20.8c-8.6,3-17.8-1.4-20.6-10c-1.3-4-1-7.8,0.7-11.6c0.2-0.6,0.3-1.6-0.1-2c-9.8-9.9-19.7-19.7-29.3-29.4
				c-3.4,1.6-6.7,3.2-9.9,4.7c-1.2,0.5-2.4,0.9-3.7,1c-2,0.1-2.2,1.1-2.2,2.8c0.1,11.9,0.1,23.9,0,35.8c0,1.7,0.5,2.3,2.1,2.7
				c12.2,3.2,19.7,15.3,17.3,27.7c-2.2,11.8-13.7,20.2-25.8,19c-11.2-1.1-20.4-10.5-21.4-21.7c-0.9-11.3,6.6-22,17.5-24.9
				c1.8-0.5,2.3-1.1,2.3-3c-0.1-11.9-0.1-23.7,0-35.6c0-1.7-0.3-2.5-2.2-2.8c-4.8-0.8-9.2-2.9-13.2-5.9c-0.6,0.5-1.1,1-1.6,1.4
				c-16,16-32,32-48,47.9c-1,1-1.3,1.8-0.7,3.2c3.8,9,2.7,17.5-3.5,24.9c-6.3,7.5-14.6,10.1-24,7.8c-9.4-2.3-15.2-8.7-17.6-18.1
				c-0.1-0.5-0.3-0.9-0.5-1.3C70.8,262,70.8,259.7,70.8,257.4z M186,197c13.1,0,23.7-10.6,23.8-23.7c0.1-13.1-10.8-23.9-23.9-23.8
				c-13,0-23.7,10.7-23.8,23.7C162.1,186.3,172.9,197,186,197z M265.5,82.1c-8.7,0-15.9,7.1-15.9,15.7s7.2,15.9,15.8,15.9
				c8.6,0,15.7-7.1,15.8-15.7C281.2,89.2,274.2,82.1,265.5,82.1z M186,284.3c8.7,0,15.8-7.2,15.8-15.9c-0.1-8.6-7.2-15.7-15.8-15.7
				c-8.6-0.1-15.9,7.2-15.9,15.8C170.2,277.3,177.3,284.4,186,284.3z M78.9,260.6c0,8.7,7.1,15.9,15.8,15.9s15.9-7.3,15.8-15.9
				s-7.1-15.6-15.7-15.7C86.1,244.7,78.9,251.9,78.9,260.6z M257.3,236.8c0-4.4-3.4-7.9-7.8-7.9c-4.3-0.1-8,3.6-7.9,8
				c0.1,4.3,3.6,7.8,7.9,7.8C253.9,244.6,257.3,241.2,257.3,236.8z M114.6,109.8c0,4.4,3.4,7.8,7.8,7.8c4.5,0,7.9-3.5,7.9-8
				c-0.1-4.3-3.6-7.9-7.9-7.8C118,101.9,114.6,105.4,114.6,109.8z"/>
		</g>
	</g>
</g>
</svg>
