<?xml version="1.0" encoding="utf-8"?>
<!-- Generator: Adobe Illustrator 25.3.1, SVG Export Plug-In . SVG Version: 6.00 Build 0)  -->
<svg version="1.1" id="Layer_1" xmlns="http://www.w3.org/2000/svg" xmlns:xlink="http://www.w3.org/1999/xlink" x="0px" y="0px"
	 viewBox="0 0 360 360" style="enable-background:new 0 0 360 360;" xml:space="preserve">
<style type="text/css">
	.st0{fill:#14E6FA;}
	.st1{fill:#5528DC;}
</style>
<g>
	<circle class="st0" cx="180" cy="180" r="172.4"/>
	<g id="gqQQjJ.tif">
		<g>
			<g>
				<path class="st1" d="M264.2,280.5c-5-1.1-8.7-4.2-12.2-7.8c-16.6-16.7-33.3-33.3-50-50c-0.5-0.5-1-1.2-1.2-1.5
					c-5.3,2.6-10.1,5.4-15.2,7.4c-13.3,5.4-27.1,7.2-41.3,5.2c-21.1-2.9-38.5-12.6-52.2-28.7c-10-11.9-16.1-25.6-18.3-41.1
					c-0.2-1.7-0.5-3.5-0.8-5.2c0-4.1,0-8.2,0-12.3c0.3-2.3,0.6-4.6,1-6.9c3.5-20,12.9-36.8,28.6-49.9c11.9-10,25.7-16.1,41.2-18.3
					c17.5-2.5,34.2,0.6,49.8,8.8c12.6,6.6,22.8,16.1,30.6,28.1c6.2,9.6,10.3,20.1,12.1,31.4c2.6,16.9,0.3,33.1-7.2,48.5
					c-1.5,3.2-3.4,6.2-5.2,9.5c0.5,0.5,1,1.1,1.5,1.6c16.6,16.6,33.2,33.2,49.9,49.8c3.6,3.6,6.9,7.2,7.9,12.3c0,1.6,0,3.3,0,4.9
					c-1.1,2.4-1.8,5-3.2,7.1c-2.4,3.9-6.4,5.7-10.7,6.8C267.5,280.5,265.9,280.5,264.2,280.5z M157.4,226.4
					c41.4-1.2,75.3-37.3,71.2-80.8c-3.5-37.2-36.6-70-80.7-66.1c-37.4,3.4-70.3,36.6-66.2,80.5C85.2,198.1,118.1,227.4,157.4,226.4z
					 M225,234c-0.1-0.1,0.1,0.1,0.3,0.3c11.7,11.7,23.4,23.3,35.1,35c0.5,0.5,1.1,1,1.7,1.5c2.9,2.1,6.9,2,9.7-0.3
					c4.1-3.3,4.2-8.6,0.2-12.7c-11.6-11.6-23.3-23.2-34.9-34.9c-0.3-0.3-0.6-0.5-0.5-0.4C232.6,226.4,228.9,230.1,225,234z
					 M230.2,216.8c-4.3-4.3-8-8.1-11.2-11.3c-3.6,3.6-7.4,7.3-11,11c3.3,3.2,7,7,11.2,11.1C222.8,224.1,226.6,220.3,230.2,216.8z"/>
				<path class="st1" d="M220.7,152.8c-0.1,36.1-29.7,65.5-65.8,65.4c-36.1-0.1-65.5-29.6-65.4-65.6c0.1-36.1,29.7-65.5,65.9-65.4
					C191.4,87.3,220.8,116.8,220.7,152.8z M155.3,95.4c-31.4,0.2-57.4,24.7-57.6,57.1c-0.2,31.3,24.6,57.3,57.1,57.5
					c31.4,0.2,57.4-24.6,57.6-57C212.6,121.6,187.8,96,155.3,95.4z"/>
				<path class="st1" d="M156.9,103.6c18.7,0.2,37.1,13.2,43.9,30.8c1,2.6,0.3,4.9-1.9,5.9c-2.3,1-4.5,0.1-5.7-2.7
					c-4.4-10.4-11.8-17.9-22.1-22.5c-4.7-2.1-9.6-3-14.7-3.3c-0.6,0-1.2,0-1.8-0.1c-2.1-0.3-3.6-2-3.5-4.1c0-2.1,1.6-3.8,3.7-4
					C155.4,103.6,156.2,103.6,156.9,103.6z"/>
				<path class="st1" d="M204.3,152.6c0.1,2.3-1.8,4.2-4.1,4.2c-2.2,0-4-1.8-4.1-4c-0.1-2.3,1.8-4.2,4.1-4.2
					C202.4,148.7,204.2,150.4,204.3,152.6z"/>
			</g>
		</g>
	</g>
</g>
</svg>
